# Blender 3.6.5
# www.blender.org
mtllib obstacle4.mtl
o Cylinder.001
v 0.000000 -0.500000 12.000000
v 0.000000 -1.000000 5.500000
v 0.000000 0.500000 12.000000
v 0.000000 1.000000 5.500000
v -4.592201 -0.500000 11.086554
v -2.104759 -1.000000 5.081337
v -4.592201 0.500000 11.086554
v -2.104759 1.000000 5.081337
v -8.485281 -0.500000 8.485281
v -3.889087 -1.000000 3.889087
v -8.485281 0.500000 8.485281
v -3.889087 1.000000 3.889087
v -11.086554 -0.500000 4.592201
v -5.081337 -1.000000 2.104759
v -11.086554 0.500000 4.592201
v -5.081337 1.000000 2.104759
v -12.000000 -0.500000 0.000000
v -5.500000 -1.000000 0.000000
v -12.000000 0.500000 0.000000
v -5.500000 1.000000 0.000000
v -5.081337 -1.000000 -2.104759
v -11.086554 -0.500000 -4.592201
v -11.086554 0.500000 -4.592201
v -5.081337 1.000000 -2.104759
v -8.485281 -0.500000 -8.485281
v -3.889087 -1.000000 -3.889087
v -8.485281 0.500000 -8.485281
v -3.889087 1.000000 -3.889087
v -4.592201 -0.500000 -11.086554
v -2.104759 -1.000000 -5.081337
v -4.592201 0.500000 -11.086554
v -2.104759 1.000000 -5.081337
v 0.000000 -0.500000 -12.000000
v 0.000000 -1.000000 -5.500000
v 0.000000 0.500000 -12.000000
v 0.000000 1.000000 -5.500000
v 2.104759 -1.000000 -5.081337
v 4.592201 -0.500000 -11.086554
v 4.592201 0.500000 -11.086554
v 2.104759 1.000000 -5.081337
v 8.485281 -0.500000 -8.485281
v 3.889087 -1.000000 -3.889087
v 8.485281 0.500000 -8.485281
v 3.889087 1.000000 -3.889087
v 11.086554 -0.500000 -4.592201
v 5.081337 -1.000000 -2.104759
v 11.086554 0.500000 -4.592201
v 5.081337 1.000000 -2.104759
v 12.000000 -0.500000 0.000000
v 5.500000 -1.000000 0.000000
v 12.000000 0.500000 0.000000
v 5.500000 1.000000 0.000000
v 11.086554 -0.500000 4.592201
v 5.081337 -1.000000 2.104759
v 11.086554 0.500000 4.592201
v 5.081337 1.000000 2.104759
v 8.485281 -0.500000 8.485281
v 3.889087 -1.000000 3.889087
v 8.485281 0.500000 8.485281
v 3.889087 1.000000 3.889087
v 4.592201 -0.500000 11.086554
v 2.104759 -1.000000 5.081337
v 2.104759 1.000000 5.081337
v 4.592201 0.500000 11.086554
v 8.000000 0.500000 0.000000
v 5.656854 0.500000 -5.656854
v 7.391036 0.500000 -3.061468
v 7.391036 0.500000 3.061468
v 3.061468 0.500000 7.391036
v -5.656854 0.500000 5.656854
v -3.061468 0.500000 7.391036
v 0.000000 0.500000 8.000000
v 5.656854 0.500000 5.656854
v 3.061468 0.500000 -7.391036
v -3.061468 0.500000 -7.391036
v 0.000000 0.500000 -8.000000
v -8.000000 0.500000 0.000000
v -7.391036 0.500000 -3.061468
v -7.391036 0.500000 3.061468
v -5.656854 0.500000 -5.656854
v 0.000000 -0.500000 8.000000
v -3.061468 -0.500000 -7.391036
v -3.061468 -0.500000 7.391036
v -5.656854 -0.500000 -5.656854
v -8.000000 -0.500000 0.000000
v -7.391036 -0.500000 -3.061468
v -7.391036 -0.500000 3.061468
v -5.656854 -0.500000 5.656854
v 7.391036 -0.500000 -3.061468
v 8.000000 -0.500000 0.000000
v 5.656854 -0.500000 -5.656854
v 7.391036 -0.500000 3.061468
v 3.061468 -0.500000 7.391036
v 0.000000 -0.500000 -8.000000
v 3.061468 -0.500000 -7.391036
v 5.656854 -0.500000 5.656854
vn -0.1951 -0.0000 0.9808
vn -0.5556 -0.0000 0.8315
vn -0.8315 -0.0000 0.5556
vn -0.9808 -0.0000 0.1951
vn -0.9808 -0.0000 -0.1951
vn -0.8315 -0.0000 -0.5556
vn -0.5556 -0.0000 -0.8315
vn -0.1951 -0.0000 -0.9808
vn 0.1951 -0.0000 -0.9808
vn 0.5556 -0.0000 -0.8315
vn 0.8315 -0.0000 -0.5556
vn 0.9808 -0.0000 -0.1951
vn 0.9808 -0.0000 0.1951
vn 0.8315 -0.0000 0.5556
vn -0.0000 1.0000 -0.0000
vn 0.5556 -0.0000 0.8315
vn 0.1951 -0.0000 0.9808
vn -0.0000 -1.0000 -0.0000
vt 1.000000 0.500000
vt 1.000000 1.000000
vt 0.937500 1.000000
vt 0.937500 0.500000
vt 0.875000 1.000000
vt 0.875000 0.500000
vt 0.812500 1.000000
vt 0.812500 0.500000
vt 0.750000 1.000000
vt 0.750000 0.500000
vt 0.687500 1.000000
vt 0.687500 0.500000
vt 0.625000 1.000000
vt 0.625000 0.500000
vt 0.562500 1.000000
vt 0.562500 0.500000
vt 0.500000 1.000000
vt 0.500000 0.500000
vt 0.437500 1.000000
vt 0.437500 0.500000
vt 0.375000 1.000000
vt 0.375000 0.500000
vt 0.312500 1.000000
vt 0.312500 0.500000
vt 0.250000 1.000000
vt 0.250000 0.500000
vt 0.187500 1.000000
vt 0.187500 0.500000
vt 0.125000 1.000000
vt 0.125000 0.500000
vt 0.188771 0.102179
vt 0.136863 0.136863
vt 0.080294 0.080294
vt 0.158156 0.028269
vt 0.250000 0.010000
vt 0.341844 0.028269
vt 0.419706 0.080294
vt 0.363137 0.136863
vt 0.311229 0.102179
vt 0.250000 0.090000
vt 0.471731 0.158156
vt 0.490000 0.250000
vt 0.471731 0.341844
vt 0.419706 0.419706
vt 0.341844 0.471731
vt 0.250000 0.490000
vt 0.158156 0.471731
vt 0.080294 0.419706
vt 0.028269 0.341844
vt 0.010000 0.250000
vt 0.028269 0.158156
vt 0.102179 0.188771
vt 0.090000 0.250000
vt 0.102179 0.311229
vt 0.136863 0.363137
vt 0.188771 0.397821
vt 0.250000 0.410000
vt 0.311229 0.397821
vt 0.363137 0.363137
vt 0.397821 0.311229
vt 0.410000 0.250000
vt 0.397821 0.188771
vt 0.062500 1.000000
vt 0.062500 0.500000
vt 0.000000 1.000000
vt 0.000000 0.500000
vt 0.910000 0.250000
vt 0.897821 0.311229
vt 0.971731 0.341844
vt 0.990000 0.250000
vt 0.971731 0.158156
vt 0.919706 0.080294
vt 0.841844 0.028269
vt 0.750000 0.010000
vt 0.658156 0.028269
vt 0.580294 0.080294
vt 0.528269 0.158156
vt 0.510000 0.250000
vt 0.528269 0.341844
vt 0.580294 0.419706
vt 0.658156 0.471731
vt 0.688771 0.397821
vt 0.636863 0.363137
vt 0.602179 0.311229
vt 0.590000 0.250000
vt 0.602179 0.188771
vt 0.636863 0.136863
vt 0.688771 0.102179
vt 0.750000 0.090000
vt 0.811229 0.102179
vt 0.863137 0.136863
vt 0.897821 0.188771
vt 0.750000 0.490000
vt 0.841844 0.471731
vt 0.919706 0.419706
vt 0.863137 0.363137
vt 0.811229 0.397821
vt 0.750000 0.410000
vt 0.937500 0.666667
vt 0.937500 0.833333
vt 1.000000 0.833333
vt 1.000000 0.666667
vt 0.875000 0.666667
vt 0.875000 0.833333
vt 0.937500 0.666667
vt 0.812500 0.833333
vt 0.875000 0.833333
vt 0.812500 0.666667
vt 0.750000 0.833333
vt 0.750000 0.666667
vt 0.687500 0.833333
vt 0.750000 0.833333
vt 0.750000 0.666667
vt 0.687500 0.666667
vt 0.625000 0.833333
vt 0.687500 0.666667
vt 0.625000 0.666667
vt 0.562500 0.833333
vt 0.625000 0.833333
vt 0.562500 0.666667
vt 0.500000 0.833333
vt 0.500000 0.666667
vt 0.437500 0.833333
vt 0.500000 0.833333
vt 0.500000 0.666667
vt 0.437500 0.666667
vt 0.375000 0.833333
vt 0.437500 0.666667
vt 0.375000 0.666667
vt 0.312500 0.666667
vt 0.312500 0.833333
vt 0.375000 0.833333
vt 0.250000 0.666667
vt 0.250000 0.833333
vt 0.187500 0.666667
vt 0.187500 0.833333
vt 0.250000 0.833333
vt 0.250000 0.666667
vt 0.125000 0.666667
vt 0.125000 0.833333
vt 0.187500 0.666667
vt 0.062500 0.666667
vt 0.062500 0.833333
vt 0.125000 0.833333
vt 0.000000 0.666667
vt 0.000000 0.833333
vt 0.028269 0.341844
vt 0.028269 0.158156
vt 0.158156 0.028269
vt 0.341844 0.028269
vt 0.841844 0.028269
vt 0.658156 0.028269
s 0
f 1/1/1 3/2/1 7/3/1 5/4/1
f 5/4/2 7/3/2 11/5/2 9/6/2
f 9/6/3 11/5/3 15/7/3 13/8/3
f 13/8/4 15/7/4 19/9/4 17/10/4
f 17/10/5 19/9/5 23/11/5 22/12/5
f 22/12/6 23/11/6 27/13/6 25/14/6
f 25/14/7 27/13/7 31/15/7 29/16/7
f 29/16/8 31/15/8 35/17/8 33/18/8
f 33/18/9 35/17/9 39/19/9 38/20/9
f 38/20/10 39/19/10 43/21/10 41/22/10
f 41/22/11 43/21/11 47/23/11 45/24/11
f 45/24/12 47/23/12 51/25/12 49/26/12
f 49/26/13 51/25/13 55/27/13 53/28/13
f 53/28/14 55/27/14 59/29/14 57/30/14
f 74/31/15 66/32/15 43/33/15 39/34/15 35/35/15 31/36/15 27/37/15 80/38/15 75/39/15 76/40/15
f 80/38/15 27/37/15 23/41/15 19/42/15 15/43/15 11/44/15 7/45/15 3/46/15 64/47/15 59/48/15 55/49/15 51/50/15 47/51/15 43/33/15 66/32/15 67/52/15 65/53/15 68/54/15 73/55/15 69/56/15 72/57/15 71/58/15 70/59/15 79/60/15 77/61/15 78/62/15
f 57/30/16 59/29/16 64/63/16 61/64/16
f 61/64/17 64/63/17 3/65/17 1/66/17
f 85/67/18 87/68/18 13/69/18 17/70/18 22/71/18 25/72/18 29/73/18 33/74/18 38/75/18 41/76/18 45/77/18 49/78/18 53/79/18 57/80/18 61/81/18 93/82/18 96/83/18 92/84/18 90/85/18 89/86/18 91/87/18 95/88/18 94/89/18 82/90/18 84/91/18 86/92/18
f 93/82/18 61/81/18 1/93/18 5/94/18 9/95/18 13/69/18 87/68/18 88/96/18 83/97/18 81/98/18
f 83/99/9 71/100/9 72/101/9 81/102/9
f 88/103/10 70/104/10 71/100/10 83/105/10
f 79/106/11 70/107/11 88/103/11 87/108/11
f 77/109/12 79/106/12 87/108/12 85/110/12
f 78/111/13 77/112/13 85/113/13 86/114/13
f 80/115/14 78/111/14 86/116/14 84/117/14
f 75/118/16 80/119/16 84/117/16 82/120/16
f 76/121/17 75/118/17 82/120/17 94/122/17
f 74/123/1 76/124/1 94/125/1 95/126/1
f 66/127/2 74/123/2 95/128/2 91/129/2
f 89/130/3 67/131/3 66/132/3 91/129/3
f 90/133/4 65/134/4 67/131/4 89/130/4
f 92/135/5 68/136/5 65/137/5 90/138/5
f 96/139/6 73/140/6 68/136/6 92/141/6
f 93/142/7 69/143/7 73/144/7 96/139/7
f 81/145/8 72/146/8 69/143/8 93/142/8
f 2/1/1 4/2/1 8/3/1 6/4/1
f 6/4/2 8/3/2 12/5/2 10/6/2
f 10/6/3 12/5/3 16/7/3 14/8/3
f 14/8/4 16/7/4 20/9/4 18/10/4
f 18/10/5 20/9/5 24/11/5 21/12/5
f 21/12/6 24/11/6 28/13/6 26/14/6
f 26/14/7 28/13/7 32/15/7 30/16/7
f 30/16/8 32/15/8 36/17/8 34/18/8
f 34/18/9 36/17/9 40/19/9 37/20/9
f 37/20/10 40/19/10 44/21/10 42/22/10
f 42/22/11 44/21/11 48/23/11 46/24/11
f 46/24/12 48/23/12 52/25/12 50/26/12
f 50/26/13 52/25/13 56/27/13 54/28/13
f 54/28/14 56/27/14 60/29/14 58/30/14
f 20/42/15 16/43/15 12/44/15 8/45/15 4/46/15 63/47/15 60/48/15 56/147/15 52/50/15 48/148/15 44/33/15 40/149/15 36/35/15 32/150/15 28/37/15 24/41/15
f 58/30/16 60/29/16 63/63/16 62/64/16
f 62/64/17 63/63/17 4/65/17 2/66/17
f 62/81/18 2/93/18 6/94/18 10/95/18 14/69/18 18/70/18 21/71/18 26/72/18 30/151/18 34/74/18 37/152/18 42/76/18 46/77/18 50/78/18 54/79/18 58/80/18
