# Blender 3.6.5
# www.blender.org
mtllib obstacle2.mtl
o Cylinder.001
v 0.000000 -0.500000 12.000000
v 0.000000 0.500000 12.000000
v -4.592201 -0.500000 11.086554
v -4.592201 0.500000 11.086554
v -8.485281 -0.500000 8.485281
v -8.485281 0.500000 8.485281
v -11.086554 -0.500000 4.592201
v -11.086554 0.500000 4.592201
v -12.000000 -0.500000 0.000000
v -12.000000 0.500000 0.000000
v -11.086554 -0.500000 -4.592201
v -11.086554 0.500000 -4.592201
v -8.485281 -0.500000 -8.485281
v -8.485281 0.500000 -8.485281
v -4.592201 -0.500000 -11.086554
v -4.592201 0.500000 -11.086554
v 0.000000 -0.500000 -12.000000
v 0.000000 0.500000 -12.000000
v 4.592201 -0.500000 -11.086554
v 4.592201 0.500000 -11.086554
v 8.485281 -0.500000 -8.485281
v 8.485281 0.500000 -8.485281
v 11.086554 -0.500000 -4.592201
v 11.086554 0.500000 -4.592201
v 12.000000 -0.500000 0.000000
v 12.000000 0.500000 0.000000
v 11.086554 -0.500000 4.592201
v 11.086554 0.500000 4.592201
v 8.485281 -0.500000 8.485281
v 8.485281 0.500000 8.485281
v 4.592201 -0.500000 11.086554
v 4.592201 0.500000 11.086554
v -0.500000 0.500000 3.500000
v -1.378680 0.500000 1.378680
v -0.728362 0.500000 2.351950
v -0.728362 0.500000 4.648050
v -2.351950 0.500000 6.271638
v -5.621320 0.500000 5.621320
v -4.648050 0.500000 6.271638
v -3.500000 0.500000 6.500000
v -1.378680 0.500000 5.621320
v -2.351950 0.500000 0.728362
v -4.648050 0.500000 0.728362
v -3.500000 0.500000 0.500000
v -6.500000 0.500000 3.500000
v -6.271638 0.500000 2.351950
v -6.271638 0.500000 4.648050
v -5.621320 0.500000 1.378680
v -0.500000 -0.500000 3.500000
v -0.728362 -0.500000 2.351950
v -0.728362 -0.500000 4.648050
v -2.351950 -0.500000 0.728362
v -2.351950 -0.500000 6.271638
v -1.378680 -0.500000 1.378680
v -1.378680 -0.500000 5.621320
v -5.621320 -0.500000 1.378680
v -4.648050 -0.500000 0.728362
v -4.648050 -0.500000 6.271638
v -6.500000 -0.500000 3.500000
v -6.271638 -0.500000 4.648050
v -6.271638 -0.500000 2.351950
v -5.621320 -0.500000 5.621320
v -3.500000 -0.500000 0.500000
v -3.500000 -0.500000 6.500000
v 6.500000 0.500000 -3.500000
v 6.271638 0.500000 -4.648050
v 6.271638 0.500000 -2.351950
v 4.648050 0.500000 -0.728362
v 4.648050 0.500000 -6.271638
v 5.621320 0.500000 -1.378680
v 5.621320 0.500000 -5.621320
v 2.351950 0.500000 -6.271638
v 2.351950 0.500000 -0.728362
v 0.500000 0.500000 -3.500000
v 0.728362 0.500000 -2.351950
v 0.728362 0.500000 -4.648050
v 1.378680 0.500000 -1.378680
v 1.378680 0.500000 -5.621320
v 3.500000 0.500000 -6.500000
v 3.500000 0.500000 -0.500000
v 6.500000 -0.500000 -3.500000
v 6.271638 -0.500000 -4.648050
v 6.271638 -0.500000 -2.351950
v 4.648050 -0.500000 -0.728362
v 4.648050 -0.500000 -6.271638
v 5.621320 -0.500000 -1.378680
v 5.621320 -0.500000 -5.621320
v 2.351950 -0.500000 -6.271638
v 2.351950 -0.500000 -0.728362
v 0.500000 -0.500000 -3.500000
v 0.728362 -0.500000 -2.351950
v 0.728362 -0.500000 -4.648050
v 3.500000 -0.500000 -6.500000
v 1.378680 -0.500000 -5.621320
v 1.378680 -0.500000 -1.378680
v 3.500000 -0.500000 -0.500000
vn -0.1951 -0.0000 0.9808
vn -0.5556 -0.0000 0.8315
vn -0.8315 -0.0000 0.5556
vn -0.9808 -0.0000 0.1951
vn -0.9808 -0.0000 -0.1951
vn -0.8315 -0.0000 -0.5556
vn -0.5556 -0.0000 -0.8315
vn -0.1951 -0.0000 -0.9808
vn 0.1951 -0.0000 -0.9808
vn 0.5556 -0.0000 -0.8315
vn 0.8315 -0.0000 -0.5556
vn 0.9808 -0.0000 -0.1951
vn 0.9808 -0.0000 0.1951
vn 0.8315 -0.0000 0.5556
vn -0.0000 1.0000 -0.0000
vn 0.5556 -0.0000 0.8315
vn 0.1951 -0.0000 0.9808
vn -0.0000 -1.0000 -0.0000
vt 1.000000 0.500000
vt 1.000000 1.000000
vt 0.937500 1.000000
vt 0.937500 0.500000
vt 0.875000 1.000000
vt 0.875000 0.500000
vt 0.812500 1.000000
vt 0.812500 0.500000
vt 0.750000 1.000000
vt 0.750000 0.500000
vt 0.687500 1.000000
vt 0.687500 0.500000
vt 0.625000 1.000000
vt 0.625000 0.500000
vt 0.562500 1.000000
vt 0.562500 0.500000
vt 0.500000 1.000000
vt 0.500000 0.500000
vt 0.437500 1.000000
vt 0.437500 0.500000
vt 0.375000 1.000000
vt 0.375000 0.500000
vt 0.312500 1.000000
vt 0.312500 0.500000
vt 0.250000 1.000000
vt 0.250000 0.500000
vt 0.187500 1.000000
vt 0.187500 0.500000
vt 0.125000 1.000000
vt 0.125000 0.500000
vt 0.342961 0.264567
vt 0.419706 0.080294
vt 0.471731 0.158156
vt 0.490000 0.250000
vt 0.471731 0.341844
vt 0.419706 0.419706
vt 0.362426 0.362426
vt 0.375433 0.342961
vt 0.380000 0.320000
vt 0.375433 0.297039
vt 0.362426 0.277574
vt 0.080294 0.419706
vt 0.028269 0.341844
vt 0.010000 0.250000
vt 0.028269 0.158156
vt 0.080294 0.080294
vt 0.137574 0.137574
vt 0.124567 0.157039
vt 0.120000 0.180000
vt 0.124567 0.202961
vt 0.137574 0.222426
vt 0.157039 0.235433
vt 0.158156 0.028269
vt 0.250000 0.010000
vt 0.341844 0.028269
vt 0.320000 0.260000
vt 0.297039 0.264567
vt 0.277574 0.277574
vt 0.264567 0.297039
vt 0.260000 0.320000
vt 0.264567 0.342961
vt 0.277574 0.362426
vt 0.297039 0.375433
vt 0.320000 0.380000
vt 0.342961 0.375433
vt 0.341844 0.471731
vt 0.250000 0.490000
vt 0.158156 0.471731
vt 0.180000 0.240000
vt 0.202961 0.235433
vt 0.222426 0.222426
vt 0.235433 0.202961
vt 0.240000 0.180000
vt 0.235433 0.157039
vt 0.222426 0.137574
vt 0.202961 0.124567
vt 0.180000 0.120000
vt 0.157039 0.124567
vt 0.062500 1.000000
vt 0.062500 0.500000
vt 0.000000 1.000000
vt 0.000000 0.500000
vt 0.797039 0.375433
vt 0.777574 0.362426
vt 0.658156 0.471731
vt 0.750000 0.490000
vt 0.841844 0.471731
vt 0.919706 0.419706
vt 0.971731 0.341844
vt 0.880000 0.320000
vt 0.875433 0.342961
vt 0.862426 0.362426
vt 0.842961 0.375433
vt 0.820000 0.380000
vt 0.528269 0.158156
vt 0.510000 0.250000
vt 0.528269 0.341844
vt 0.580294 0.419706
vt 0.764567 0.342961
vt 0.760000 0.320000
vt 0.764567 0.297039
vt 0.777574 0.277574
vt 0.797039 0.264567
vt 0.820000 0.260000
vt 0.842961 0.264567
vt 0.862427 0.277574
vt 0.875433 0.297039
vt 0.990000 0.250000
vt 0.971731 0.158156
vt 0.919706 0.080294
vt 0.841844 0.028269
vt 0.722426 0.137574
vt 0.735433 0.157039
vt 0.740000 0.180000
vt 0.735433 0.202961
vt 0.722426 0.222426
vt 0.702961 0.235433
vt 0.680000 0.240000
vt 0.657039 0.235433
vt 0.637574 0.222426
vt 0.624567 0.202961
vt 0.620000 0.180000
vt 0.750000 0.010000
vt 0.658156 0.028269
vt 0.580294 0.080294
vt 0.624567 0.157039
vt 0.637574 0.137574
vt 0.657039 0.124567
vt 0.680000 0.120000
vt 0.702961 0.124567
vt 0.937500 0.625000
vt 0.937500 0.875000
vt 1.000000 0.875000
vt 1.000000 0.625000
vt 0.875000 0.625000
vt 0.875000 0.875000
vt 0.812500 0.875000
vt 0.812500 0.625000
vt 0.750000 0.875000
vt 0.750000 0.625000
vt 0.687500 0.875000
vt 0.687500 0.625000
vt 0.625000 0.875000
vt 0.625000 0.625000
vt 0.562500 0.875000
vt 0.562500 0.625000
vt 0.500000 0.875000
vt 0.500000 0.625000
vt 0.437500 0.875000
vt 0.437500 0.625000
vt 0.375000 0.875000
vt 0.375000 0.625000
vt 0.312500 0.625000
vt 0.312500 0.875000
vt 0.250000 0.625000
vt 0.250000 0.875000
vt 0.187500 0.625000
vt 0.187500 0.875000
vt 0.125000 0.625000
vt 0.125000 0.875000
vt 0.062500 0.625000
vt 0.062500 0.875000
vt 0.000000 0.625000
vt 0.000000 0.875000
s 0
f 1/1/1 2/2/1 4/3/1 3/4/1
f 3/4/2 4/3/2 6/5/2 5/6/2
f 5/6/3 6/5/3 8/7/3 7/8/3
f 7/8/4 8/7/4 10/9/4 9/10/4
f 9/10/5 10/9/5 12/11/5 11/12/5
f 11/12/6 12/11/6 14/13/6 13/14/6
f 13/14/7 14/13/7 16/15/7 15/16/7
f 15/16/8 16/15/8 18/17/8 17/18/8
f 17/18/9 18/17/9 20/19/9 19/20/9
f 19/20/10 20/19/10 22/21/10 21/22/10
f 21/22/11 22/21/11 24/23/11 23/24/11
f 23/24/12 24/23/12 26/25/12 25/26/12
f 25/26/13 26/25/13 28/27/13 27/28/13
f 27/28/14 28/27/14 30/29/14 29/30/14
f 43/31/15 14/32/15 12/33/15 10/34/15 8/35/15 6/36/15 38/37/15 47/38/15 45/39/15 46/40/15 48/41/15
f 30/42/15 28/43/15 26/44/15 24/45/15 22/46/15 71/47/15 66/48/15 65/49/15 67/50/15 70/51/15 68/52/15
f 71/47/15 22/46/15 20/53/15 18/54/15 16/55/15 14/32/15 43/31/15 44/56/15 42/57/15 34/58/15 35/59/15 33/60/15 36/61/15 41/62/15 37/63/15 40/64/15 39/65/15 38/37/15 6/36/15 4/66/15 2/67/15 32/68/15 30/42/15 68/52/15 80/69/15 73/70/15 77/71/15 75/72/15 74/73/15 76/74/15 78/75/15 72/76/15 79/77/15 69/78/15
f 29/30/16 30/29/16 32/79/16 31/80/16
f 31/80/17 32/79/17 2/81/17 1/82/17
f 53/83/18 55/84/18 31/85/18 1/86/18 3/87/18 5/88/18 7/89/18 59/90/18 60/91/18 62/92/18 58/93/18 64/94/18
f 23/95/18 25/96/18 27/97/18 29/98/18 31/85/18 55/84/18 51/99/18 49/100/18 50/101/18 54/102/18 52/103/18 63/104/18 57/105/18 56/106/18 61/107/18 59/90/18 7/89/18 9/108/18 11/109/18 13/110/18 15/111/18 94/112/18 92/113/18 90/114/18 91/115/18 95/116/18 89/117/18 96/118/18 84/119/18 86/120/18 83/121/18 81/122/18
f 94/112/18 15/111/18 17/123/18 19/124/18 21/125/18 23/95/18 81/122/18 82/126/18 87/127/18 85/128/18 93/129/18 88/130/18
f 58/131/9 39/132/9 40/133/9 64/134/9
f 62/135/10 38/136/10 39/132/10 58/131/10
f 47/137/11 38/136/11 62/135/11 60/138/11
f 45/139/12 47/137/12 60/138/12 59/140/12
f 46/141/13 45/139/13 59/140/13 61/142/13
f 48/143/14 46/141/14 61/142/14 56/144/14
f 43/145/16 48/143/16 56/144/16 57/146/16
f 44/147/17 43/145/17 57/146/17 63/148/17
f 42/149/1 44/147/1 63/148/1 52/150/1
f 34/151/2 42/149/2 52/150/2 54/152/2
f 50/153/3 35/154/3 34/151/3 54/152/3
f 49/155/4 33/156/4 35/154/4 50/153/4
f 51/157/5 36/158/5 33/156/5 49/155/5
f 55/159/6 41/160/6 36/158/6 51/157/6
f 53/161/7 37/162/7 41/160/7 55/159/7
f 64/163/8 40/164/8 37/162/8 53/161/8
f 89/131/9 73/132/9 80/133/9 96/134/9
f 95/135/10 77/136/10 73/132/10 89/131/10
f 75/137/11 77/136/11 95/135/11 91/138/11
f 74/139/12 75/137/12 91/138/12 90/140/12
f 76/141/13 74/139/13 90/140/13 92/142/13
f 78/143/14 76/141/14 92/142/14 94/144/14
f 72/145/16 78/143/16 94/144/16 88/146/16
f 79/147/17 72/145/17 88/146/17 93/148/17
f 69/149/1 79/147/1 93/148/1 85/150/1
f 71/151/2 69/149/2 85/150/2 87/152/2
f 82/153/3 66/154/3 71/151/3 87/152/3
f 81/155/4 65/156/4 66/154/4 82/153/4
f 83/157/5 67/158/5 65/156/5 81/155/5
f 86/159/6 70/160/6 67/158/6 83/157/6
f 84/161/7 68/162/7 70/160/7 86/159/7
f 96/163/8 80/164/8 68/162/8 84/161/8
