# Blender 3.6.5
# www.blender.org
mtllib obstacle3.mtl
o Cylinder.001
v 0.000000 -0.500000 12.000000
v 0.000000 0.500000 12.000000
v -4.592201 -0.500000 11.086554
v -4.592201 0.500000 11.086554
v -8.485281 -0.500000 8.485281
v -8.485281 0.500000 8.485281
v -11.086554 -0.500000 4.592201
v -11.086554 0.500000 4.592201
v -12.000000 -0.500000 0.000000
v -12.000000 0.500000 0.000000
v -11.086554 -0.500000 -4.592201
v -11.086554 0.500000 -4.592201
v -8.485281 -0.500000 -8.485281
v -8.485281 0.500000 -8.485281
v -4.592201 -0.500000 -11.086554
v -4.592201 0.500000 -11.086554
v 0.000000 -0.500000 -12.000000
v 0.000000 0.500000 -12.000000
v 4.592201 -0.500000 -11.086554
v 4.592201 0.500000 -11.086554
v 8.485281 -0.500000 -8.485281
v 8.485281 0.500000 -8.485281
v 11.086554 -0.500000 -4.592201
v 11.086554 0.500000 -4.592201
v 12.000000 -0.500000 0.000000
v 12.000000 0.500000 0.000000
v 11.086554 -0.500000 4.592201
v 11.086554 0.500000 4.592201
v 8.485281 -0.500000 8.485281
v 8.485281 0.500000 8.485281
v 4.592201 -0.500000 11.086554
v 4.592201 0.500000 11.086554
v 6.187184 0.500000 -4.419417
v -4.419417 0.500000 6.187184
v -5.303301 0.500000 5.303301
v 5.303301 0.500000 -5.303301
v 4.419417 0.500000 -6.187184
v -6.187184 0.500000 4.419417
v -6.187184 -0.500000 4.419417
v -4.419417 -0.500000 6.187184
v 6.187184 -0.500000 -4.419417
v 4.419417 -0.500000 -6.187184
vn -0.1951 -0.0000 0.9808
vn -0.5556 -0.0000 0.8315
vn -0.8315 -0.0000 0.5556
vn -0.9808 -0.0000 0.1951
vn -0.9808 -0.0000 -0.1951
vn -0.8315 -0.0000 -0.5556
vn -0.5556 -0.0000 -0.8315
vn -0.1951 -0.0000 -0.9808
vn 0.1951 -0.0000 -0.9808
vn 0.5556 -0.0000 -0.8315
vn 0.8315 -0.0000 -0.5556
vn 0.9808 -0.0000 -0.1951
vn 0.9808 -0.0000 0.1951
vn 0.8315 -0.0000 0.5556
vn -0.0000 1.0000 -0.0000
vn 0.5556 -0.0000 0.8315
vn 0.1951 -0.0000 0.9808
vn -0.0000 -1.0000 -0.0000
vn -0.7071 -0.0000 0.7071
vn -0.7071 -0.0000 -0.7071
vn 0.7071 -0.0000 -0.7071
vn 0.7071 -0.0000 0.7071
vt 1.000000 0.500000
vt 1.000000 1.000000
vt 0.937500 1.000000
vt 0.937500 0.500000
vt 0.875000 1.000000
vt 0.875000 0.500000
vt 0.812500 1.000000
vt 0.812500 0.500000
vt 0.750000 1.000000
vt 0.750000 0.500000
vt 0.687500 1.000000
vt 0.687500 0.500000
vt 0.625000 1.000000
vt 0.625000 0.500000
vt 0.562500 1.000000
vt 0.562500 0.500000
vt 0.500000 1.000000
vt 0.500000 0.500000
vt 0.437500 1.000000
vt 0.437500 0.500000
vt 0.375000 1.000000
vt 0.375000 0.500000
vt 0.312500 1.000000
vt 0.312500 0.500000
vt 0.250000 1.000000
vt 0.250000 0.500000
vt 0.187500 1.000000
vt 0.187500 0.500000
vt 0.125000 1.000000
vt 0.125000 0.500000
vt 0.338388 0.373744
vt 0.356066 0.356066
vt 0.419706 0.419706
vt 0.341844 0.471731
vt 0.250000 0.490000
vt 0.158156 0.471731
vt 0.080294 0.419706
vt 0.028269 0.341844
vt 0.010000 0.250000
vt 0.028269 0.158156
vt 0.080294 0.080294
vt 0.143934 0.143934
vt 0.126256 0.161612
vt 0.158156 0.028269
vt 0.250000 0.010000
vt 0.341844 0.028269
vt 0.419706 0.080294
vt 0.471731 0.158156
vt 0.490000 0.250000
vt 0.471731 0.341844
vt 0.373744 0.338388
vt 0.161612 0.126256
vt 0.062500 1.000000
vt 0.062500 0.500000
vt 0.000000 1.000000
vt 0.000000 0.500000
vt 0.971731 0.341844
vt 0.990000 0.250000
vt 0.971731 0.158156
vt 0.919706 0.080294
vt 0.841844 0.028269
vt 0.750000 0.010000
vt 0.658156 0.028269
vt 0.580294 0.080294
vt 0.528269 0.158156
vt 0.626256 0.161612
vt 0.661612 0.126256
vt 0.873744 0.338388
vt 0.510000 0.250000
vt 0.528269 0.341844
vt 0.580294 0.419706
vt 0.658156 0.471731
vt 0.750000 0.490000
vt 0.841844 0.471731
vt 0.919706 0.419706
vt 0.838388 0.373744
vt 0.550000 0.250000
vt 0.550000 0.125000
vt 0.550000 0.000000
vt 0.450000 0.000000
vt 0.450000 0.250000
vt 0.450000 0.500000
vt 0.550000 0.500000
vt 0.450000 0.750000
vt 0.550000 0.750000
vt 0.550000 0.625000
vt 0.550000 1.000000
vt 0.450000 1.000000
s 0
f 1/1/1 2/2/1 4/3/1 3/4/1
f 3/4/2 4/3/2 6/5/2 5/6/2
f 5/6/3 6/5/3 8/7/3 7/8/3
f 7/8/4 8/7/4 10/9/4 9/10/4
f 9/10/5 10/9/5 12/11/5 11/12/5
f 11/12/6 12/11/6 14/13/6 13/14/6
f 13/14/7 14/13/7 16/15/7 15/16/7
f 15/16/8 16/15/8 18/17/8 17/18/8
f 17/18/9 18/17/9 20/19/9 19/20/9
f 19/20/10 20/19/10 22/21/10 21/22/10
f 21/22/11 22/21/11 24/23/11 23/24/11
f 23/24/12 24/23/12 26/25/12 25/26/12
f 25/26/13 26/25/13 28/27/13 27/28/13
f 27/28/14 28/27/14 30/29/14 29/30/14
f 34/31/15 35/32/15 6/33/15 4/34/15 2/35/15 32/36/15 30/37/15 28/38/15 26/39/15 24/40/15 22/41/15 36/42/15 33/43/15
f 36/42/15 22/41/15 20/44/15 18/45/15 16/46/15 14/47/15 12/48/15 10/49/15 8/50/15 6/33/15 35/32/15 38/51/15 37/52/15
f 29/30/16 30/29/16 32/53/16 31/54/16
f 31/54/17 32/53/17 2/55/17 1/56/17
f 7/57/18 9/58/18 11/59/18 13/60/18 15/61/18 17/62/18 19/63/18 21/64/18 23/65/18 41/66/18 42/67/18 39/68/18
f 23/65/18 25/69/18 27/70/18 29/71/18 31/72/18 1/73/18 3/74/18 5/75/18 7/57/18 39/68/18 40/76/18 41/66/18
f 33/77/19 36/78/19 37/79/19 42/80/19 41/81/19
f 40/82/20 34/83/20 33/77/20 41/81/20
f 39/84/21 38/85/21 35/86/21 34/83/21 40/82/21
f 37/87/22 38/85/22 39/84/22 42/88/22
