# Blender v3.6.5 OBJ File: ''
# www.blender.org
o Cylinder
v 0.000000 -50.000000 10.000000
v 0.000000 50.000000 10.000000
v -3.826835 -50.000000 9.238795
v -3.826835 50.000000 9.238795
v -7.071068 -50.000000 7.071068
v -7.071068 50.000000 7.071068
v -9.238795 -50.000000 3.826835
v -9.238795 50.000000 3.826835
v -10.000000 -50.000000 0.000000
v -10.000000 50.000000 0.000000
v -9.238795 -50.000000 -3.826835
v -9.238795 50.000000 -3.826835
v -7.071068 -50.000000 -7.071068
v -7.071068 50.000000 -7.071068
v -3.826835 -50.000000 -9.238795
v -3.826835 50.000000 -9.238795
v 0.000000 -50.000000 -10.000000
v 0.000000 50.000000 -10.000000
v 3.826835 -50.000000 -9.238795
v 3.826835 50.000000 -9.238795
v 7.071068 -50.000000 -7.071068
v 7.071068 50.000000 -7.071068
v 9.238795 -50.000000 -3.826835
v 9.238795 50.000000 -3.826835
v 10.000000 -50.000000 0.000000
v 10.000000 50.000000 0.000000
v 9.238795 -50.000000 3.826835
v 9.238795 50.000000 3.826835
v 7.071068 -50.000000 7.071068
v 7.071068 50.000000 7.071068
v 3.826835 -50.000000 9.238795
v 3.826835 50.000000 9.238795
vn 0.1951 0.0000 -0.9808
vn 0.5556 0.0000 -0.8315
vn 0.8315 0.0000 -0.5556
vn 0.9808 0.0000 -0.1951
vn 0.9808 0.0000 0.1951
vn 0.8315 0.0000 0.5556
vn 0.5556 0.0000 0.8315
vn 0.1951 0.0000 0.9808
vn -0.1951 0.0000 0.9808
vn -0.5556 0.0000 0.8315
vn -0.8315 0.0000 0.5556
vn -0.9808 0.0000 0.1951
vn -0.9808 0.0000 -0.1951
vn -0.8315 0.0000 -0.5556
vn -0.5556 0.0000 -0.8315
vn -0.1951 0.0000 -0.9808
s off
f 1//1 3//1 4//1 2//1
f 3//2 5//2 6//2 4//2
f 5//3 7//3 8//3 6//3
f 7//4 9//4 10//4 8//4
f 9//5 11//5 12//5 10//5
f 11//6 13//6 14//6 12//6
f 13//7 15//7 16//7 14//7
f 15//8 17//8 18//8 16//8
f 17//9 19//9 20//9 18//9
f 19//10 21//10 22//10 20//10
f 21//11 23//11 24//11 22//11
f 23//12 25//12 26//12 24//12
f 25//13 27//13 28//13 26//13
f 27//14 29//14 30//14 28//14
f 29//15 31//15 32//15 30//15
f 31//16 1//16 2//16 32//16
